ply
format ascii 1.0
comment Created by Blender 2.79 (sub 0) - www.blender.org, source file: ''
element vertex 54
property float x
property float y
property float z
property float nx
property float ny
property float nz
property float s
property float t
element face 24
property list uchar uint vertex_indices
end_header
1.000000 0.999999 1.000000 0.796327 -0.000000 0.604867 0.515636 0.101018
1.759570 -1.759571 0.000000 0.796327 -0.000000 0.604867 0.386727 0.468024
1.759571 1.759570 0.000000 0.796327 -0.000000 0.604867 0.386727 0.000000
0.999999 -1.000001 1.000000 -0.000000 -0.796327 0.604867 0.161879 0.835030
-1.759571 -1.759570 0.000000 -0.000000 -0.796327 0.604867 0.323759 0.468024
1.759570 -1.759571 0.000000 -0.000000 -0.796327 0.604867 0.323759 0.936049
-1.000000 -1.000000 1.000000 -0.796327 0.000000 0.604867 0.257818 0.101018
-1.759570 1.759571 0.000000 -0.796327 0.000000 0.604867 0.128909 0.468024
-1.759571 -1.759570 0.000000 -0.796327 0.000000 0.604867 0.128909 0.000000
1.759571 1.759570 0.000000 0.000000 0.796327 -0.604867 0.515636 0.000000
-1.000000 1.000000 -1.000000 0.000000 0.796327 -0.604867 0.677515 0.367006
-1.759570 1.759571 0.000000 0.000000 0.796327 -0.604867 0.515636 0.468024
1.759571 1.759570 0.000000 0.000000 0.796327 0.604867 0.839394 0.000000
-1.000000 1.000000 1.000000 0.000000 0.796327 0.604867 0.677515 0.367006
1.000000 0.999999 1.000000 0.000000 0.796327 0.604867 0.677515 0.101018
-1.759571 -1.759570 0.000000 -0.796327 0.000000 -0.604867 0.128909 0.000000
-1.000000 1.000000 -1.000000 -0.796327 0.000000 -0.604867 0.000000 0.367006
-1.000000 -1.000000 -1.000000 -0.796327 0.000000 -0.604867 0.000000 0.101018
1.759570 -1.759571 0.000000 -0.000000 -0.796327 -0.604867 0.161879 0.468024
-1.000000 -1.000000 -1.000000 -0.000000 -0.796327 -0.604867 0.000000 0.835030
1.000000 -1.000000 -1.000000 -0.000000 -0.796327 -0.604867 0.000000 0.569043
1.759571 1.759570 0.000000 0.796327 0.000000 -0.604867 0.386727 0.000000
1.000000 -1.000000 -1.000000 0.796327 0.000000 -0.604867 0.257818 0.367006
1.000000 1.000000 -1.000000 0.796327 0.000000 -0.604867 0.257818 0.101018
-1.000000 1.000000 1.000000 1.000000 -0.000000 0.000000 0.677515 0.468024
-1.000000 -1.000000 -1.000000 1.000000 -0.000000 0.000000 0.419697 0.734012
-1.000000 1.000000 -1.000000 1.000000 -0.000000 0.000000 0.419697 0.468024
1.000000 1.000000 -1.000000 -0.000000 -1.000000 -0.000000 0.677515 0.734012
-1.000000 1.000000 1.000000 -0.000000 -1.000000 -0.000000 0.882822 1.000000
-1.000000 1.000000 -1.000000 -0.000000 -1.000000 -0.000000 0.677515 1.000000
1.000000 -1.000000 -1.000000 -1.000000 0.000000 0.000000 0.935333 0.468024
1.000000 0.999999 1.000000 -1.000000 0.000000 0.000000 0.677515 0.734012
1.000000 1.000000 -1.000000 -1.000000 0.000000 0.000000 0.677515 0.468024
-1.000000 -1.000000 -1.000000 0.000000 1.000000 0.000000 0.677515 1.000000
0.999999 -1.000001 1.000000 0.000000 1.000000 0.000000 0.472208 0.734012
1.000000 -1.000000 -1.000000 0.000000 1.000000 0.000000 0.677515 0.734012
0.999999 -1.000001 1.000000 0.796327 -0.000000 0.604867 0.515636 0.367006
-1.000000 -1.000000 1.000000 -0.000000 -0.796327 0.604867 0.161879 0.569043
-1.000000 1.000000 1.000000 -0.796327 0.000000 0.604867 0.257818 0.367006
1.000000 1.000000 -1.000000 0.000000 0.796327 -0.604867 0.677515 0.101018
-1.759570 1.759571 0.000000 0.000000 0.796327 0.604867 0.839395 0.468024
-1.759570 1.759571 0.000000 -0.796327 0.000000 -0.604867 0.128909 0.468024
-1.759571 -1.759570 0.000000 -0.000000 -0.796327 -0.604867 0.161879 0.936049
1.759571 1.759570 0.000000 0.796327 -0.000000 -0.604866 0.386727 0.000000
1.759570 -1.759571 0.000000 0.796327 -0.000000 -0.604866 0.386727 0.468024
1.000000 -1.000000 -1.000000 0.796327 -0.000000 -0.604866 0.257818 0.367006
-1.000000 -1.000000 1.000000 1.000000 -0.000000 0.000000 0.677515 0.734012
1.000000 0.999999 1.000000 -0.000000 -1.000000 -0.000000 0.882822 0.734012
1.000000 -1.000000 -1.000000 -1.000000 0.000001 -0.000000 0.935333 0.468024
0.999999 -1.000001 1.000000 -1.000000 0.000001 -0.000000 0.935333 0.734012
1.000000 0.999999 1.000000 -1.000000 0.000001 -0.000000 0.677515 0.734012
-1.000000 -1.000000 -1.000000 0.000000 1.000000 -0.000000 1.000000 0.340021
-1.000000 -1.000000 1.000000 0.000000 1.000000 -0.000000 0.839395 0.208074
0.999999 -1.000001 1.000000 0.000000 1.000000 -0.000000 1.000000 0.000000
3 0 1 2
3 3 4 5
3 6 7 8
3 9 10 11
3 12 13 14
3 15 16 17
3 18 19 20
3 21 22 23
3 24 25 26
3 27 28 29
3 30 31 32
3 33 34 35
3 0 36 1
3 3 37 4
3 6 38 7
3 9 39 10
3 12 40 13
3 15 41 16
3 18 42 19
3 43 44 45
3 24 46 25
3 27 47 28
3 48 49 50
3 51 52 53
